PathFileType	4	(X/Y/Z)	 s07c0001.trc
DataRate	CameraRate	NumFrames	NumMarkers	Units	OrigDataRate	OrigDataStartFrame	OrigNumFrames
200	200	4	49	mm	200	501	2000
Frame#	Time	racr			lacr			c7			jug			rlel			rdr			llel			ldr			s2			lic			ric			lasi			rasi			rpsi			lpsi			rgt			lgt			rth1			rth2			rth3			rth4			rlfc			rmfc			rsh1			rsh2			rsh3			rsh4			rlmal			rmmal			rcal			rtoe			rmt5			rmt1			lth1			lth2			lth4			lth3			llfc			lmfc			lsh1			lsh2			lsh3			lsh4			llmal			lmmal			lcal			ltoe			lmt1			lmt5			
		X1	Y1	Z1	X2	Y2	Z2	X3	Y3	Z3	X4	Y4	Z4	X5	Y5	Z5	X6	Y6	Z6	X7	Y7	Z7	X8	Y8	Z8	X9	Y9	Z9	X10	Y10	Z10	X11	Y11	Z11	X12	Y12	Z12	X13	Y13	Z13	X14	Y14	Z14	X15	Y15	Z15	X16	Y16	Z16	X17	Y17	Z17	X18	Y18	Z18	X19	Y19	Z19	X20	Y20	Z20	X21	Y21	Z21	X22	Y22	Z22	X23	Y23	Z23	X24	Y24	Z24	X25	Y25	Z25	X26	Y26	Z26	X27	Y27	Z27	X28	Y28	Z28	X29	Y29	Z29	X30	Y30	Z30	X31	Y31	Z31	X32	Y32	Z32	X33	Y33	Z33	X34	Y34	Z34	X35	Y35	Z35	X36	Y36	Z36	X37	Y37	Z37	X38	Y38	Z38	X39	Y39	Z39	X40	Y40	Z40	X41	Y41	Z41	X42	Y42	Z42	X43	Y43	Z43	X44	Y44	Z44	X45	Y45	Z45	X46	Y46	Z46	X47	Y47	Z47	X48	Y48	Z48	X49	Y49	Z49	
501	2.5050	178.504816	1568.779995	566.006208	208.029291	1570.051811	196.163715	146.877927	1608.116565	377.188362	269.056861	1517.415875	388.091837	244.155532	1223.250818	696.741313	393.850392	984.739287	808.947520	283.696334	1216.509362	97.346604	438.789176	978.837747	-5.352139	113.739271	1061.067943	368.387920	259.358441	1143.947890	232.886722	245.408551	1132.118153	536.991402	324.033306	1076.132224	266.322541	293.556098	1073.253279	529.224345	123.396459	1095.393862	424.940774	141.811169	1102.909712	313.315783	209.700150	975.764913	565.080245	242.607408	973.958300	215.095890	218.617042	847.033670	566.953620	241.771019	762.159096	559.091761	221.619731	679.293229	549.683213	278.071562	764.213020	551.479180	220.402907	537.949608	514.813487	229.631376	527.433322	419.026255	180.871668	400.115496	530.946595	198.657425	314.184137	510.730468	170.215039	232.405249	504.658207	221.665743	317.962954	478.399237	158.815862	91.683495	488.845123	199.481758	105.729369	410.720316	113.861058	41.247661	447.099185	395.386179	86.103164	505.358972	311.003298	36.118563	557.053529	328.116326	43.959601	449.564859	252.493615	856.686096	200.625639	275.558072	771.922962	207.592210	310.138533	772.796011	222.036285	252.465673	686.388620	215.107372	247.617468	531.439514	242.586714	241.797656	515.202423	330.473090	212.879779	396.607979	216.997198	229.407424	314.339896	238.085513	202.412027	227.271978	233.323959	239.404196	317.425467	278.110428	190.741026	91.244992	243.728522	225.138228	111.699758	324.981256	141.568930	37.697877	280.171757	423.179219	92.820569	249.253944	359.083228	47.627067	297.278475	345.355455	53.049718	192.081875	
502	2.5100	178.450465	1568.777881	565.988145	207.993074	1570.040826	196.132300	146.847384	1608.080996	377.085276	269.024140	1517.409296	388.076254	244.119683	1223.245873	696.698242	393.825976	984.741786	808.903195	283.644534	1216.499604	97.355394	438.741357	978.839252	-5.375361	113.734745	1061.044539	368.391510	259.341424	1143.956425	232.884592	245.369061	1132.120130	536.988658	324.015279	1076.123724	266.317669	293.534220	1073.257832	529.223019	123.380665	1095.369573	424.910863	141.793553	1102.906598	313.311363	209.685969	975.759568	565.080644	242.581464	973.955809	215.099895	218.597934	847.037980	566.946803	241.759706	762.157946	559.086605	221.618181	679.282631	549.682875	278.057427	764.212290	551.452578	220.380622	537.932010	514.798404	229.605954	527.411578	419.014004	180.865342	400.087932	530.948067	199.204854	314.318014	510.988409	170.205597	232.416254	504.657157	221.649228	318.274697	478.636689	158.825791	91.699850	488.859361	201.004943	105.839452	411.439070	113.882253	41.241028	447.098770	395.387315	86.122403	505.359271	311.016923	36.126158	557.043589	328.133538	43.961160	449.553085	252.451225	856.693985	200.623530	275.531566	771.902540	207.582710	310.099922	772.807145	222.033863	252.417810	686.388640	215.096595	247.614788	531.444478	242.591591	241.781410	515.224788	330.459939	212.857851	396.613221	216.995013	229.397657	314.259057	237.979612	202.413304	227.280997	233.337135	239.400455	317.423102	278.105562	190.741929	91.253932	243.720748	225.140298	111.702802	324.988794	141.569407	37.684872	280.168742	423.173728	92.803713	249.242640	359.066280	47.595990	297.287298	345.370919	53.046337	192.093002	
503	2.5150	178.404677	1568.773490	565.977686	207.944269	1570.023561	196.112006	146.782306	1608.087916	377.088342	268.966963	1517.429657	388.078844	244.084904	1223.233127	696.677462	393.793290	984.736808	808.888147	283.707059	1216.439105	97.743384	438.703110	978.816684	-5.384890	113.707914	1061.034646	368.383481	259.314648	1143.940077	232.872120	245.351140	1132.117133	536.977355	323.969418	1076.110113	266.304146	293.488454	1073.249316	529.201398	123.335812	1095.363271	424.929087	141.746612	1102.911758	313.315229	209.656439	975.767509	565.077324	242.537239	973.950045	215.097794	218.581289	847.036841	566.940658	241.737119	762.166274	559.071926	221.599569	679.272533	549.675287	278.023158	764.207519	551.464268	220.348208	537.952647	514.812687	229.578859	527.430547	418.997897	180.848855	400.074564	530.953131	198.624195	314.161700	510.736771	170.181747	232.398365	504.647558	221.632951	317.964689	478.415808	158.814884	91.684317	488.856409	200.997619	105.829561	411.431587	113.890718	41.227377	447.095843	395.370932	86.114622	505.349415	311.012516	36.117365	557.044017	328.134846	43.964660	449.570229	252.442276	856.669981	200.635473	275.520595	771.887105	207.614364	310.069845	772.795358	222.029441	252.391503	686.383335	215.098187	247.576142	531.449848	242.589884	241.754298	515.214823	330.454271	212.842421	396.601251	217.008587	229.395216	314.275463	237.974130	202.399169	227.274268	233.324976	239.358020	317.399462	278.091087	190.741386	91.245025	243.727136	225.137934	111.700269	324.981236	141.566793	37.686703	280.184672	423.178804	92.805679	249.248511	359.043187	47.620644	297.268000	345.381778	53.035037	192.096879	
504	2.5200	178.365692	1568.771377	565.961065	207.884564	1570.018162	196.110757	146.729804	1608.082748	377.079163	268.924441	1517.416135	388.055325	244.045693	1223.246553	696.633922	393.778788	984.746027	808.845495	283.678242	1216.432052	97.745488	438.668274	978.818494	-5.398680	113.666067	1061.042217	368.378423	259.269968	1143.934852	232.868454	245.298720	1132.103270	536.969301	323.943251	1076.137598	266.270778	293.474829	1073.246760	529.192318	123.314410	1095.367836	424.928107	141.722231	1102.911117	313.291247	209.648562	975.751763	565.055195	242.503799	973.951295	215.085303	218.567456	847.031192	566.929042	241.712996	762.156883	559.081570	221.570956	679.281123	549.676449	278.002351	764.224918	551.469273	220.343278	537.941836	514.807400	229.537368	527.434120	418.987454	180.803471	400.114340	530.943045	199.183985	314.306965	510.987739	170.169032	232.413985	504.644764	221.611690	318.257432	478.618572	158.825810	91.693416	488.863095	201.007148	105.812069	411.451898	113.859164	41.252067	447.085325	395.386766	86.113599	505.354032	311.025627	36.129078	557.061391	328.114633	43.950823	449.561376	252.394843	856.672034	200.623265	275.472081	771.920372	207.580675	310.023507	772.802943	221.981169	252.358195	686.393876	215.109042	247.554762	531.460980	242.596267	241.762145	515.218812	330.472376	212.804425	396.607490	216.995771	229.377247	314.332781	238.109763	202.407131	227.273237	233.335791	239.369091	317.390862	278.102453	190.749143	91.249191	243.726976	225.142288	111.690439	324.990226	141.574990	37.684726	280.167927	423.198714	92.817413	249.264408	359.054940	47.621369	297.282840	345.360056	53.045958	192.082628	
